<svg xmlns="http://www.w3.org/2000/svg" width="178" height="20" viewBox="0 0 178 20" fill="none"><g fill="#2998FF"><path d="M115.57 18.16a7.54 7.54 0 0 1-4 1.06A4.93 4.93 0 0 1 108.1 18c-.9-.83-1.35-2-1.35-3.54V7.3h-2.14V4.25h2.14V1.87L111.12 0v4.25h4.17v3.08h-4.17v6.38c0 1.18.47 1.78 1.4 1.78a5 5 0 0 0 2.14-.58l.91 3.25ZM23.98 3.3c-2.16 0-4.25.9-5.73 2.5l-7.67 7.75a3.93 3.93 0 0 1-2.7 1.24 3.6 3.6 0 0 1-3.58-3.61 3.58 3.58 0 0 1 6.15-2.51l3.06-3.03a7.89 7.89 0 0 0-5.63-2.4A7.92 7.92 0 0 0 0 11.19a7.92 7.92 0 0 0 7.88 7.93c2 0 3.88-.78 5.48-2.27h.01l.26-.26.13-.14 7.54-7.62.1-.09a3.63 3.63 0 0 1 2.58-1.1 3.6 3.6 0 0 1 3.58 3.6 3.58 3.58 0 0 1-6.9 1.39l-3.13 3.16a7.88 7.88 0 0 0 6.45 3.39 7.92 7.92 0 0 0 7.88-7.94 7.92 7.92 0 0 0-7.88-7.93ZM48.53 5a6 6 0 0 1 1.53 4.31v9.71h-4.4V10.6a3.2 3.2 0 0 0-.8-2.31 2.92 2.92 0 0 0-2.22-.85c-1.08.02-1.94.4-2.57 1.14a4.22 4.22 0 0 0-.94 2.83v7.61h-4.4V3.56h4.4v2.7c1.07-1.87 2.83-2.83 5.3-2.87A5.4 5.4 0 0 1 48.53 5Zm20.65 4.31A6 6 0 0 0 67.65 5a5.38 5.38 0 0 0-4.1-1.6c-2.47.03-4.24.99-5.3 2.86v-2.7h-4.4v15.46h4.4v-7.61c0-1.15.31-2.1.94-2.83a3.28 3.28 0 0 1 2.57-1.14c.93 0 1.67.29 2.21.85.54.57.81 1.34.81 2.31v8.42h4.4V9.31Z"/><path fill-rule="evenodd" d="M85.52 6.04c1.28 1.44 1.92 3.44 1.92 6 0 .46 0 .82-.03 1.07h-11c.24.97.71 1.74 1.42 2.28.7.55 1.55.82 2.54.82a5.36 5.36 0 0 0 3.88-1.64l2.3 2.36a7.77 7.77 0 0 1-2.83 2.03c-1.11.46-2.35.7-3.72.7a8.8 8.8 0 0 1-4.24-.98 6.82 6.82 0 0 1-2.8-2.76 8.36 8.36 0 0 1-.98-4.1 8.4 8.4 0 0 1 1-4.16 7.02 7.02 0 0 1 2.8-2.78c1.2-.67 2.56-1 4.1-1 2.47 0 4.35.72 5.64 2.16Zm-2.21 4.45a3.51 3.51 0 0 0-.97-2.44 3.27 3.27 0 0 0-2.43-.92c-.95 0-1.75.3-2.38.9a4.21 4.21 0 0 0-1.21 2.46h6.99Z" clip-rule="evenodd"/><path d="M88.67 11.35a8 8 0 0 0 7.96 8.01 7.91 7.91 0 0 0 6.7-3.72l.05-.07-3.3-1.92-.03.06a4.14 4.14 0 0 1-7.57-2.36c0-2.3 1.86-4.17 4.15-4.17 1.31 0 2.52.6 3.31 1.67l.04.05 3.25-2.01-.05-.07a7.94 7.94 0 0 0-14.5 4.53Z"/><path fill-rule="evenodd" d="M132.26 11.58c0-2.57-.64-4.57-1.92-6-1.29-1.44-3.17-2.16-5.64-2.16-1.54 0-2.91.33-4.1 1a7.02 7.02 0 0 0-2.8 2.78 8.4 8.4 0 0 0-1 4.15c0 1.55.33 2.92.98 4.11a6.82 6.82 0 0 0 2.8 2.76 8.8 8.8 0 0 0 4.23.98c1.38 0 2.62-.24 3.73-.7a7.76 7.76 0 0 0 2.84-2.03l-2.31-2.36a5.5 5.5 0 0 1-3.88 1.64c-1 0-1.84-.28-2.54-.82a4.03 4.03 0 0 1-1.43-2.29h11.01c.02-.25.03-.6.03-1.06Zm-5.1-4c.6.62.93 1.43.97 2.45h-7a4.22 4.22 0 0 1 1.22-2.46c.63-.6 1.43-.9 2.38-.9 1 0 1.82.3 2.42.92Zm16.89 11.44v-1.8a4.93 4.93 0 0 1-2 1.49c-.82.34-1.76.51-2.83.51-1.61 0-2.9-.44-3.85-1.33a4.56 4.56 0 0 1-1.43-3.5c0-1.45.51-2.58 1.53-3.4 1.02-.81 2.46-1.23 4.32-1.25h4.23v-.29c0-.82-.27-1.46-.82-1.9-.54-.46-1.33-.68-2.38-.68-1.42 0-2.95.45-4.56 1.35l-1.37-3.05a18.27 18.27 0 0 1 3.42-1.35 13.4 13.4 0 0 1 3.51-.43c2.06 0 3.65.49 4.78 1.47a5.19 5.19 0 0 1 1.73 4.08l.02 10.08h-4.3Zm-1.23-3.62a2.6 2.6 0 0 0 1.2-1.66v-1.38h-3.46c-.85 0-1.48.14-1.9.41-.4.28-.6.73-.6 1.34 0 .6.2 1.07.64 1.42.43.36 1 .53 1.75.53.91 0 1.7-.22 2.37-.66Z" clip-rule="evenodd"/><path d="M178 9.31c0-1.82-.5-3.26-1.5-4.32a5.28 5.28 0 0 0-4.04-1.6 6.4 6.4 0 0 0-3.38.92 5.6 5.6 0 0 0-2.15 2.64 5.06 5.06 0 0 0-5.2-3.56c-2.4.04-4.12.99-5.19 2.85V3.56h-4.4v15.46h4.4v-7.64c0-1.15.31-2.09.93-2.82a3.19 3.19 0 0 1 2.5-1.12c.91 0 1.63.29 2.15.85.52.57.79 1.34.79 2.31v8.42h4.36v-7.64c0-1.15.3-2.09.91-2.82a3.19 3.19 0 0 1 2.49-1.12c.91 0 1.63.28 2.17.84.53.55.8 1.33.8 2.32v8.42H178V9.31Z"/></g></svg>