<svg width="364" height="84" viewBox="0 0 364 84" fill="none" xmlns="http://www.w3.org/2000/svg">
<path d="M0 0H77V13.3H69.8704C69.8704 13.336 68.053 13.7074 67.7315 15.506C66.1875 24.1444 63.2162 30.4214 57.3935 36.6791C55.0207 34.6996 51.1671 32.671 47.6808 30.8358C46.9771 30.4653 46.2883 30.1027 45.6296 29.75C49.4177 25.7447 51.7766 21.7395 53.3879 16.7785C53.443 16.5612 53.4722 16.334 53.4722 16.1C53.4722 14.5536 52.1954 13.3 50.6204 13.3H26.3796C24.8046 13.3 23.5278 14.5536 23.5278 16.1C23.5278 16.3417 23.559 16.5763 23.6176 16.8H23.6034C27.2422 29.7393 37.2997 34.8002 46.4518 39.4055C47.0135 39.6881 47.5718 39.9691 48.125 40.25C58.1428 45.3374 66.2621 54.2758 67.9463 69.2461C68.2888 70.0008 69.0086 70.5542 69.8704 70.6752V70.7H77V84H0V70.7H7.12963V70.6752C7.95268 70.5596 8.64617 70.0497 9.0052 69.3466C9.81389 60.9241 14.8529 51.5313 19.25 46.55C22.4583 49 26.3796 51.8 30.6574 54.25C26.9565 57.6041 25.0744 62.9671 23.5586 67.4869C23.5383 67.6217 23.5278 67.7597 23.5278 67.9C23.5278 69.4464 24.8046 70.7 26.3796 70.7H50.6204C52.1954 70.7 53.4722 69.4464 53.4722 67.9C53.4722 67.6583 53.441 67.4237 53.3824 67.2H53.4153C49.7849 57.5437 43.5597 53.8167 36.2152 49.4195C34.8723 48.6155 33.492 47.7891 32.0833 46.9C22.1019 40.6 18.8935 37.5136 13.9028 29.05C11.6504 25.2302 9.98148 18.2 9.26661 15.6535C9.23155 15.4523 9.19771 15.251 9.16507 15.0496C8.89105 14.1462 8.10047 13.4612 7.12963 13.3248V13.3H0V0Z" fill="#FF6603"/>
<path d="M109.55 76.8113C104.286 76.8113 99.857 75.8365 96.2623 73.8868C92.7317 71.9371 89.8109 69.6101 87.5 66.9057L96.84 56.717C98.7658 58.7925 100.692 60.4277 102.617 61.6226C104.607 62.7547 106.79 63.3208 109.165 63.3208C111.989 63.3208 114.204 62.4717 115.809 60.7736C117.414 59.0126 118.216 56.2138 118.216 52.3774V7.07863H133.43V53.0377C133.43 57 132.884 60.4277 131.793 63.3208C130.701 66.2138 129.129 68.6667 127.075 70.6792C125.02 72.6918 122.485 74.2327 119.468 75.3019C116.515 76.3082 113.209 76.8113 109.55 76.8113Z" fill="#0F0F0F"/>
<path d="M143.872 25.3019H158.508V75.8679H143.872V25.3019ZM143.487 7H158.893V19.7358H143.487V7Z" fill="#0F0F0F"/>
<path d="M195.363 64.6415C197.097 64.6415 198.701 64.327 200.178 63.6981C201.718 63.0063 203.067 62.0629 204.222 60.8679C205.377 59.6101 206.276 58.1321 206.918 56.434C207.624 54.7359 207.977 52.8176 207.977 50.6792V50.4906C207.977 48.4151 207.624 46.5283 206.918 44.8302C206.276 43.0692 205.377 41.5912 204.222 40.3962C203.067 39.1384 201.718 38.195 200.178 37.566C198.701 36.8742 197.097 36.5283 195.363 36.5283C193.63 36.5283 191.993 36.8742 190.453 37.566C188.976 38.195 187.66 39.1384 186.505 40.3962C185.414 41.5912 184.515 43.0692 183.809 44.8302C183.167 46.5283 182.846 48.4151 182.846 50.4906V50.6792C182.846 52.7547 183.167 54.673 183.809 56.434C184.515 58.1321 185.414 59.6101 186.505 60.8679C187.66 62.0629 188.976 63.0063 190.453 63.6981C191.993 64.327 193.63 64.6415 195.363 64.6415ZM199.119 76.8113C195.203 76.8113 191.961 76.0566 189.394 74.5472C186.89 73.0377 184.772 71.2767 183.039 69.2642V75.8679H168.403V7H183.039V32.566C184.836 30.1761 186.986 28.2264 189.49 26.717C192.058 25.1447 195.267 24.3585 199.119 24.3585C202.136 24.3585 205.056 24.9245 207.881 26.0566C210.705 27.1887 213.209 28.8868 215.391 31.1509C217.574 33.3522 219.307 36.0881 220.591 39.3585C221.939 42.566 222.613 46.2767 222.613 50.4906V50.6792C222.613 54.8931 221.939 58.6352 220.591 61.9057C219.307 65.1132 217.574 67.8491 215.391 70.1132C213.273 72.3145 210.802 73.9811 207.977 75.1132C205.153 76.2453 202.2 76.8113 199.119 76.8113Z" fill="#0F0F0F"/>
<path d="M256.488 64.6415C258.221 64.6415 259.826 64.327 261.302 63.6981C262.843 63.0063 264.191 62.0629 265.346 60.8679C266.502 59.6101 267.401 58.1321 268.042 56.434C268.749 54.7359 269.102 52.8176 269.102 50.6792V50.4906C269.102 48.4151 268.749 46.5283 268.042 44.8302C267.401 43.0692 266.502 41.5912 265.346 40.3962C264.191 39.1384 262.843 38.195 261.302 37.566C259.826 36.8742 258.221 36.5283 256.488 36.5283C254.755 36.5283 253.118 36.8742 251.577 37.566C250.101 38.195 248.785 39.1384 247.629 40.3962C246.538 41.5912 245.639 43.0692 244.933 44.8302C244.291 46.5283 243.97 48.4151 243.97 50.4906V50.6792C243.97 52.7547 244.291 54.673 244.933 56.434C245.639 58.1321 246.538 59.6101 247.629 60.8679C248.785 62.0629 250.101 63.0063 251.577 63.6981C253.118 64.327 254.755 64.6415 256.488 64.6415ZM260.243 76.8113C256.327 76.8113 253.086 76.0566 250.518 74.5472C248.014 73.0377 245.896 71.2767 244.163 69.2642V75.8679H229.527V7H244.163V32.566C245.96 30.1761 248.111 28.2264 250.614 26.717C253.182 25.1447 256.392 24.3585 260.243 24.3585C263.26 24.3585 266.181 24.9245 269.005 26.0566C271.83 27.1887 274.333 28.8868 276.516 31.1509C278.698 33.3522 280.432 36.0881 281.715 39.3585C283.063 42.566 283.738 46.2767 283.738 50.4906V50.6792C283.738 54.8931 283.063 58.6352 281.715 61.9057C280.432 65.1132 278.698 67.8491 276.516 70.1132C274.398 72.3145 271.926 73.9811 269.102 75.1132C266.277 76.2453 263.324 76.8113 260.243 76.8113Z" fill="#0F0F0F"/>
<path d="M291.326 7H305.961V75.8679H291.326V7Z" fill="#0F0F0F"/>
<path d="M349.749 46.6226C349.3 43.4151 348.145 40.8365 346.283 38.8868C344.421 36.8742 341.95 35.8679 338.869 35.8679C335.787 35.8679 333.284 36.8428 331.358 38.7925C329.497 40.7421 328.277 43.3522 327.699 46.6226H349.749ZM340.313 77C336.462 77 332.867 76.3711 329.529 75.1132C326.255 73.8553 323.398 72.0629 320.959 69.7359C318.584 67.4088 316.722 64.673 315.374 61.5283C314.026 58.3208 313.352 54.7673 313.352 50.8679V50.6792C313.352 47.0943 313.962 43.6981 315.182 40.4906C316.466 37.283 318.231 34.4843 320.478 32.0943C322.724 29.7044 325.388 27.8176 328.47 26.434C331.615 25.0503 335.081 24.3585 338.869 24.3585C343.17 24.3585 346.893 25.1132 350.038 26.6226C353.184 28.1321 355.783 30.1761 357.838 32.7547C359.956 35.2704 361.496 38.195 362.459 41.5283C363.486 44.7987 364 48.2264 364 51.8113C364 52.3774 363.968 52.9748 363.904 53.6038C363.904 54.2327 363.872 54.8931 363.807 55.5849H327.892C328.598 58.8554 330.042 61.3396 332.225 63.0377C334.472 64.673 337.232 65.4906 340.506 65.4906C342.945 65.4906 345.127 65.0818 347.053 64.2642C348.979 63.4465 350.969 62.1258 353.023 60.3019L361.4 67.566C358.961 70.522 356.008 72.8491 352.542 74.5472C349.075 76.1824 344.999 77 340.313 77Z" fill="#0F0F0F"/>
</svg>
