<?xml version="1.0" encoding="utf-8"?>
<!-- Generator: Adobe Illustrator 18.0.0, SVG Export Plug-In . SVG Version: 6.00 Build 0)  -->
<!DOCTYPE svg PUBLIC "-//W3C//DTD SVG 1.1//EN" "http://www.w3.org/Graphics/SVG/1.1/DTD/svg11.dtd">
<svg version="1.1" id="Layer_1" xmlns="http://www.w3.org/2000/svg" xmlns:xlink="http://www.w3.org/1999/xlink" x="0px" y="0px"
	 viewBox="0 0 167 31" enable-background="new 0 0 167 31" xml:space="preserve" width="167" height="31">
<g>
	<path fill="#555655" d="M59,7c-0.2,0-0.5,0-0.8,0c-0.4,0-0.7,0-0.9,0c-0.2,0-0.4,0.1-0.5,0.1c-0.1,0.1-0.2,0.1-0.2,0.2
		c0,0.1-0.1,0.2-0.1,0.3l-2.8,12.7h0l-3-12.6c0-0.2-0.1-0.3-0.1-0.4c-0.1-0.1-0.1-0.2-0.3-0.2C50.2,7,50.1,7,49.8,7
		c-0.2,0-0.5,0-0.9,0c-0.4,0-0.7,0-0.9,0c-0.2,0-0.4,0.1-0.5,0.1c-0.1,0.1-0.2,0.1-0.3,0.2c-0.1,0.1-0.1,0.2-0.1,0.4l-2.9,12.6h0
		L41.5,7.6c0-0.2-0.1-0.3-0.1-0.4c0-0.1-0.1-0.2-0.2-0.2C41.1,7,40.9,7,40.7,7c-0.2,0-0.5,0-0.9,0c-0.4,0-0.7,0-1,0
		c-0.2,0-0.4,0.1-0.5,0.2c-0.1,0.1-0.1,0.2-0.1,0.4c0,0.2,0,0.4,0.1,0.7l3.6,14.9c0,0.2,0.1,0.4,0.2,0.5c0.1,0.1,0.2,0.2,0.4,0.3
		c0.2,0.1,0.4,0.1,0.7,0.1c0.3,0,0.7,0,1.1,0c0.4,0,0.8,0,1.1,0c0.3,0,0.5-0.1,0.6-0.1s0.3-0.2,0.3-0.3c0.1-0.1,0.1-0.3,0.2-0.5
		l2.4-10.5h0l2.5,10.5c0,0.2,0.1,0.4,0.2,0.5c0.1,0.1,0.2,0.2,0.4,0.3c0.2,0.1,0.4,0.1,0.7,0.1c0.3,0,0.6,0,1.1,0c0.4,0,0.8,0,1,0
		c0.3,0,0.5-0.1,0.7-0.1s0.3-0.2,0.4-0.3c0.1-0.1,0.2-0.3,0.2-0.5l3.6-14.9c0.1-0.3,0.1-0.5,0.1-0.7c0-0.2,0-0.3-0.1-0.4
		C59.4,7.1,59.2,7,59,7z"/>
	<path fill="#555655" d="M70.3,12.8c-0.3-0.4-0.7-0.8-1.2-1c-0.5-0.2-1.1-0.4-1.9-0.4c-0.6,0-1.2,0.1-1.7,0.4
		c-0.5,0.3-1.1,0.6-1.6,1.2V7.5c0-0.1,0-0.2-0.1-0.2c0-0.1-0.1-0.1-0.2-0.2c-0.1,0-0.3-0.1-0.5-0.1c-0.2,0-0.4,0-0.7,0
		c-0.3,0-0.5,0-0.7,0c-0.2,0-0.3,0.1-0.5,0.1c-0.1,0-0.2,0.1-0.2,0.2s-0.1,0.1-0.1,0.2v16c0,0.1,0,0.2,0.1,0.2
		c0,0.1,0.1,0.1,0.2,0.2c0.1,0,0.3,0.1,0.5,0.1c0.2,0,0.4,0,0.7,0c0.3,0,0.5,0,0.7,0c0.2,0,0.3-0.1,0.5-0.1c0.1,0,0.2-0.1,0.2-0.2
		c0-0.1,0.1-0.1,0.1-0.2v-7.7c0.4-0.5,0.8-1,1.2-1.2c0.4-0.3,0.8-0.4,1.2-0.4c0.3,0,0.6,0.1,0.8,0.2c0.2,0.1,0.4,0.3,0.6,0.5
		c0.1,0.2,0.3,0.5,0.3,0.8c0.1,0.3,0.1,0.7,0.1,1.2v6.7c0,0.1,0,0.2,0.1,0.2c0,0.1,0.1,0.1,0.2,0.2c0.1,0,0.3,0.1,0.5,0.1
		c0.2,0,0.4,0,0.7,0c0.3,0,0.5,0,0.7,0c0.2,0,0.4-0.1,0.5-0.1c0.1,0,0.2-0.1,0.2-0.2c0-0.1,0.1-0.1,0.1-0.2v-7.2
		c0-0.8-0.1-1.5-0.2-2.1C70.9,13.7,70.6,13.3,70.3,12.8z"/>
	<path fill="#555655" d="M82.2,13c-0.4-0.5-0.9-0.8-1.6-1.1c-0.6-0.3-1.4-0.4-2.3-0.4c-0.9,0-1.6,0.1-2.3,0.4
		c-0.7,0.3-1.3,0.7-1.7,1.2c-0.5,0.5-0.8,1.2-1.1,2c-0.3,0.8-0.4,1.6-0.4,2.6c0,1,0.1,1.9,0.4,2.7c0.2,0.8,0.6,1.4,1.1,1.9
		c0.5,0.5,1.1,1.4,1.8,1.6c0.7,0.2,1.6,0.4,2.5,0.4c0.5,0,1,0,1.5-0.1c0.5-0.1,0.9-0.2,1.2-0.2c0.4-0.1,0.7-0.2,0.9-0.3
		c0.2-0.1,0.4-0.2,0.4-0.2c0.1-0.1,0.1-0.1,0.1-0.2c0-0.1,0.1-0.1,0.1-0.2c0-0.1,0-0.7,0-0.8c0-0.1,0-0.3,0-0.5c0-0.2,0-0.4,0-0.5
		c0-0.1,0-0.2-0.1-0.3c0-0.1-0.1-0.1-0.1-0.2c0,0-0.1,0-0.2,0c-0.1,0-0.3,0-0.5,0.1c-0.2,0.1-0.4,0.2-0.7,0.3
		c-0.3,0.1-0.6,0.2-1,0.3c-0.4,0.1-0.9,0.1-1.4,0.1c-0.5,0-1-0.1-1.4-0.2c-0.4-0.1-0.7-0.3-0.9-0.6s-0.4-0.6-0.5-1
		c-0.1-0.4-0.2-0.8-0.2-1.3h6.6c0.3,0,0.5-0.1,0.7-0.3c0.2-0.2,0.2-0.5,0.2-0.8v-0.5c0-0.8-0.1-1.5-0.3-2.1
		C82.9,14,82.6,13.5,82.2,13z M75.9,16.4c0-0.4,0.1-0.7,0.2-1.1c0.1-0.3,0.2-0.6,0.4-0.9c0.2-0.2,0.4-0.4,0.7-0.6
		c0.3-0.1,0.6-0.2,1-0.2c0.8,0,1.3,0.2,1.7,0.7c0.4,0.5,0.5,1.2,0.5,2H75.9z"/>
	<path fill="#555655" d="M94.6,12.8c-0.3-0.4-0.7-0.7-1.2-1c-0.5-0.2-1.1-0.4-1.9-0.4c-0.7,0-1.3,0.2-1.9,0.5
		c-0.6,0.3-1.2,0.8-1.8,1.5v-1.3c0-0.1,0-0.2-0.1-0.2c0-0.1-0.1-0.1-0.2-0.2c-0.1,0-0.2-0.1-0.4-0.1c-0.2,0-0.4,0-0.6,0
		c-0.3,0-0.5,0-0.6,0c-0.2,0-0.3,0.1-0.4,0.1c-0.1,0-0.2,0.1-0.2,0.2c0,0.1-0.1,0.1-0.1,0.2v11.4c0,0.1,0,0.2,0.1,0.2
		c0,0.1,0.1,0.1,0.2,0.2c0.1,0,0.3,0.1,0.5,0.1c0.2,0,0.4,0,0.7,0c0.3,0,0.5,0,0.7,0c0.2,0,0.3-0.1,0.5-0.1c0.1,0,0.2-0.1,0.2-0.2
		c0-0.1,0.1-0.1,0.1-0.2v-7.7c0.4-0.5,0.8-1,1.2-1.2c0.4-0.3,0.8-0.4,1.2-0.4c0.3,0,0.6,0.1,0.8,0.2c0.2,0.1,0.4,0.3,0.6,0.5
		c0.1,0.2,0.3,0.5,0.3,0.8c0.1,0.3,0.1,0.7,0.1,1.2v6.7c0,0.1,0,0.2,0.1,0.2c0,0.1,0.1,0.1,0.2,0.2c0.1,0,0.3,0.1,0.5,0.1
		c0.2,0,0.4,0,0.7,0c0.3,0,0.5,0,0.7,0c0.2,0,0.4-0.1,0.5-0.1c0.1,0,0.2-0.1,0.2-0.2c0-0.1,0.1-0.1,0.1-0.2v-7.2
		c0-0.8-0.1-1.5-0.2-2C95.1,13.7,94.9,13.2,94.6,12.8z"/>
	<path fill="#555655" d="M104.3,7.1c-0.1,0-0.3-0.1-0.5-0.1c-0.2,0-0.5,0-0.8,0c-0.3,0-0.6,0-0.8,0c-0.2,0-0.4,0.1-0.5,0.1
		c-0.1,0-0.2,0.1-0.3,0.2c-0.1,0.1-0.1,0.1-0.1,0.2v16c0,0.1,0,0.2,0.1,0.2c0.1,0.1,0.1,0.1,0.3,0.2c0.1,0,0.3,0.1,0.5,0.1
		c0.2,0,0.5,0,0.8,0c0.3,0,0.6,0,0.8,0c0.2,0,0.4-0.1,0.5-0.1c0.1,0,0.2-0.1,0.3-0.2c0.1-0.1,0.1-0.1,0.1-0.2v-16
		c0-0.1,0-0.2-0.1-0.2C104.5,7.2,104.4,7.1,104.3,7.1z"/>
	<path fill="#555655" d="M131.2,7.6c0-0.2,0-0.3-0.1-0.4C131,7.1,130.8,7,130.6,7c-0.2,0-0.5,0-0.8,0c-0.4,0-0.7,0-0.9,0
		c-0.2,0-0.4,0.1-0.5,0.1s-0.2,0.1-0.2,0.2c0,0.1-0.1,0.2-0.1,0.3l-2.8,12.7h0l-3-12.6c0-0.2-0.1-0.3-0.1-0.4
		c-0.1-0.1-0.1-0.2-0.3-0.2C121.8,7,121.7,7,121.4,7c-0.2,0-0.5,0-0.9,0c-0.4,0-0.7,0-0.9,0c-0.2,0-0.4,0.1-0.5,0.1
		c-0.1,0.1-0.2,0.1-0.3,0.2c-0.1,0.1-0.1,0.2-0.1,0.4l-2.9,12.6h0l-2.8-12.7c0-0.2-0.1-0.3-0.1-0.4c0-0.1-0.1-0.2-0.2-0.2
		c-0.1,0-0.3-0.1-0.5-0.1c-0.2,0-0.5,0-0.9,0c-0.4,0-0.7,0-1,0c-0.2,0-0.4,0.1-0.5,0.2c-0.1,0.1-0.1,0.2-0.1,0.4
		c0,0.2,0,0.4,0.1,0.7l3.6,14.9c0,0.2,0.1,0.4,0.2,0.5c0.1,0.1,0.2,0.2,0.4,0.3c0.2,0.1,0.4,0.1,0.7,0.1c0.3,0,0.7,0,1.1,0
		c0.4,0,0.8,0,1.1,0c0.3,0,0.5-0.1,0.6-0.1c0.2-0.1,0.3-0.2,0.3-0.3c0.1-0.1,0.1-0.3,0.2-0.5l2.4-10.5h0l2.5,10.5
		c0,0.2,0.1,0.4,0.2,0.5c0.1,0.1,0.2,0.2,0.4,0.3c0.2,0.1,0.4,0.1,0.7,0.1c0.3,0,0.6,0,1.1,0c0.4,0,0.8,0,1,0c0.3,0,0.5-0.1,0.7-0.1
		c0.2-0.1,0.3-0.2,0.4-0.3c0.1-0.1,0.2-0.3,0.2-0.5L131,8.3C131.1,8,131.2,7.7,131.2,7.6z"/>
	<path fill="#555655" d="M140.8,13c-0.5-0.5-1.1-0.9-1.8-1.2c-0.7-0.3-1.6-0.4-2.5-0.4c-1,0-1.9,0.2-2.6,0.5
		c-0.7,0.3-1.4,0.7-1.8,1.3c-0.5,0.5-0.9,1.2-1.1,2c-0.2,0.8-0.4,1.6-0.4,2.5c0,1,0.1,1.8,0.3,2.6c0.2,0.7,0.6,1.4,1,1.9
		c0.5,0.5,1.1,1.4,1.8,1.7c0.7,0.3,1.5,0.4,2.5,0.4c1,0,1.9-0.2,2.6-0.5c0.7-0.3,1.4-1.2,1.9-1.8c0.5-0.6,0.9-1.2,1.1-2
		c0.2-0.8,0.4-1.6,0.4-2.5c0-1-0.1-1.8-0.3-2.6C141.6,14.2,141.3,13.5,140.8,13z M138.9,19.2c-0.1,0.5-0.3,0.8-0.5,1.2
		c-0.2,0.3-0.5,0.6-0.8,0.7c-0.3,0.2-0.7,0.2-1.2,0.2c-0.5,0-0.9-0.1-1.3-0.3c-0.3-0.2-0.6-0.4-0.8-0.8c-0.2-0.3-0.3-0.7-0.4-1.2
		c-0.1-0.5-0.1-0.9-0.1-1.5c0-0.6,0.1-1.1,0.2-1.5c0.1-0.5,0.3-0.8,0.5-1.2c0.2-0.3,0.5-0.6,0.8-0.7c0.3-0.2,0.7-0.2,1.2-0.2
		c0.5,0,0.9,0.1,1.3,0.3c0.3,0.2,0.6,0.4,0.8,0.8c0.2,0.3,0.3,0.7,0.4,1.2c0.1,0.5,0.1,0.9,0.1,1.5C139.1,18.2,139,18.7,138.9,19.2z
		"/>
	<path fill="#555655" d="M150.7,12.1c0-0.1,0-0.2-0.1-0.2c0,0-0.1-0.1-0.1-0.1c0,0-0.1-0.1-0.2-0.1c-0.1,0-0.2-0.1-0.3-0.1
		c-0.1,0-0.3,0-0.4-0.1c-0.1,0-0.2,0-0.3,0c-0.2,0-0.5,0-0.7,0.1c-0.2,0.1-0.5,0.2-0.7,0.3c-0.2,0.2-0.5,0.4-0.7,0.6
		c-0.3,0.3-0.5,0.6-0.8,1v-1.4c0-0.1,0-0.2-0.1-0.2c0-0.1-0.1-0.1-0.2-0.2c-0.1,0-0.2-0.1-0.4-0.1c-0.2,0-0.4,0-0.6,0
		c-0.3,0-0.5,0-0.6,0c-0.2,0-0.3,0.1-0.4,0.1c-0.1,0-0.2,0.1-0.2,0.2c0,0.1-0.1,0.1-0.1,0.2v11.4c0,0.1,0,0.2,0.1,0.2
		c0,0.1,0.1,0.1,0.2,0.2c0.1,0,0.3,0.1,0.5,0.1c0.2,0,0.4,0,0.7,0c0.3,0,0.5,0,0.7,0c0.2,0,0.3-0.1,0.5-0.1c0.1,0,0.2-0.1,0.2-0.2
		c0-0.1,0.1-0.1,0.1-0.2v-7.3c0.2-0.4,0.4-0.7,0.6-0.9c0.2-0.2,0.4-0.4,0.6-0.6c0.2-0.1,0.4-0.3,0.5-0.3c0.2-0.1,0.3-0.1,0.5-0.1
		c0.1,0,0.3,0,0.4,0s0.2,0.1,0.3,0.1c0.1,0,0.2,0.1,0.3,0.1c0.1,0,0.2,0,0.2,0c0.1,0,0.1,0,0.2-0.1c0.1,0,0.1-0.1,0.1-0.2
		c0-0.1,0.1-0.3,0.1-0.4c0-0.2,0-0.4,0-0.7s0-0.5,0-0.7C150.8,12.3,150.7,12.2,150.7,12.1z"/>
	<path fill="#555655" d="M162,22.3l-3.7-5.7l3.2-3.6c0.1-0.2,0.2-0.3,0.3-0.4c0.1-0.1,0.1-0.3,0.1-0.4c0-0.1,0-0.2-0.1-0.2
		c0-0.1-0.1-0.1-0.3-0.2c-0.1,0-0.3-0.1-0.5-0.1s-0.5,0-0.8,0c-0.3,0-0.6,0-0.8,0c-0.2,0-0.4,0.1-0.5,0.1s-0.2,0.1-0.3,0.2
		c-0.1,0.1-0.2,0.2-0.2,0.3l-3.2,4.3V7.5c0-0.1,0-0.2-0.1-0.2s-0.1-0.1-0.2-0.2c-0.1,0-0.3-0.1-0.5-0.1c-0.2,0-0.4,0-0.7,0
		c-0.3,0-0.5,0-0.7,0c-0.2,0-0.3,0.1-0.5,0.1c-0.1,0-0.2,0.1-0.2,0.2c0,0.1-0.1,0.1-0.1,0.2v16c0,0.1,0,0.2,0.1,0.2
		c0,0.1,0.1,0.1,0.2,0.2c0.1,0,0.3,0.1,0.5,0.1c0.2,0,0.4,0,0.7,0c0.3,0,0.5,0,0.7,0c0.2,0,0.3-0.1,0.5-0.1c0.1,0,0.2-0.1,0.2-0.2
		c0-0.1,0.1-0.1,0.1-0.2v-6.2l3.6,6.2c0.1,0.1,0.1,0.2,0.2,0.3c0.1,0.1,0.2,0.1,0.3,0.2c0.1,0,0.3,0.1,0.5,0.1c0.2,0,0.5,0,0.8,0
		c0.3,0,0.6,0,0.8,0c0.2,0,0.4,0,0.5-0.1c0.1,0,0.2-0.1,0.2-0.1c0-0.1,0.1-0.1,0.1-0.2c0-0.1,0-0.2-0.1-0.3
		C162.2,23.1,162.1,22.5,162,22.3z"/>
	<path fill="#555655" d="M166.4,8.4c-0.4-0.4-0.9-0.6-1.5-0.6c-0.6,0-1.1,0.2-1.5,0.6c-0.4,0.4-0.6,0.9-0.6,1.5
		c0,0.6,0.2,1.1,0.6,1.5c0.4,0.4,0.9,0.6,1.5,0.6s1.1-0.2,1.5-0.6c0.4-0.4,0.6-0.9,0.6-1.5C167,9.3,166.8,8.8,166.4,8.4z
		 M166.2,11.1c-0.3,0.4-0.8,0.5-1.3,0.5c-0.5,0-0.9-0.2-1.3-0.5c-0.3-0.4-0.5-0.8-0.5-1.3c0-0.5,0.2-0.9,0.5-1.3
		c0.3-0.4,0.8-0.5,1.3-0.5c0.5,0,0.9,0.2,1.3,0.5c0.3,0.3,0.5,0.8,0.5,1.3C166.7,10.4,166.5,10.8,166.2,11.1z"/>
	<path fill="#555655" d="M165.8,10.8c0-0.1,0-0.1,0-0.2v-0.2c0-0.1,0-0.2-0.1-0.4c-0.1-0.1-0.2-0.2-0.4-0.2c0.1,0,0.2-0.1,0.3-0.1
		c0.1-0.1,0.2-0.2,0.2-0.5c0-0.3-0.1-0.5-0.4-0.6c-0.1-0.1-0.3-0.1-0.6-0.1h-0.8V11h0.4v-0.9h0.3c0.2,0,0.4,0,0.4,0.1
		c0.1,0.1,0.2,0.3,0.2,0.5v0.2l0,0.1c0,0,0,0,0,0c0,0,0,0,0,0h0.4l0,0C165.8,10.9,165.8,10.9,165.8,10.8z M165.2,9.8
		c-0.1,0-0.2,0.1-0.4,0.1h-0.4V9h0.3c0.2,0,0.4,0,0.5,0.1c0.1,0.1,0.2,0.2,0.2,0.3C165.5,9.6,165.4,9.7,165.2,9.8z"/>
</g>
<path fill-rule="evenodd" clip-rule="evenodd" fill="#50A346" d="M15.5,31C6.9,31,0,24,0,15.5C0,6.9,6.9,0,15.5,0
	C24.1,0,31,6.9,31,15.5C31,24,24.1,31,15.5,31z M15.5,2.6C8.4,2.6,2.6,8.4,2.6,15.5c0,7.1,5.8,12.9,12.9,12.9
	c7.1,0,12.9-5.8,12.9-12.9C28.4,8.4,22.6,2.6,15.5,2.6z M23.1,17H11.9c-0.5,0-0.9-0.4-0.9-0.9v-1.3c0-0.5,0.4-0.9,0.9-0.9h11.3
	c0.5,0,0.9,0.4,0.9,0.9v1.3C24,16.6,23.6,17,23.1,17z M20.2,12H8.9C8.4,12,8,11.6,8,11.1V9.8C8,9.4,8.4,9,8.9,9h11.3
	C20.6,9,21,9.4,21,9.8v1.3C21,11.6,20.6,12,20.2,12z M8.9,19h11.3c0.5,0,0.9,0.4,0.9,0.9v1.3c0,0.5-0.4,0.9-0.9,0.9H8.9
	C8.4,22,8,21.6,8,21.1v-1.3C8,19.4,8.4,19,8.9,19z"/>
</svg>
